M48
; DRILL file {KiCad (5.1.6-0-10_14)} date Tuesday, July 14, 2020 at 09:27:00 PM
; FORMAT={-:-/ absolute / inch / decimal}
; #@! TF.CreationDate,2020-07-14T21:27:00+02:00
; #@! TF.GenerationSoftware,Kicad,Pcbnew,(5.1.6-0-10_14)
; #@! TF.FileFunction,Plated,1,2,PTH
FMAT,2
INCH
T1C0.0315
T2C0.0394
T3C0.0591
%
G90
G05
T1
X11.53Y-4.995
X11.83Y-4.995
X10.545Y-2.25
X10.545Y-2.55
X8.295Y-2.245
X8.295Y-2.545
X2.295Y-2.24
X2.295Y-2.54
X3.045Y-3.76
X3.045Y-4.06
X8.295Y-3.765
X8.295Y-4.065
X12.27Y-4.995
X12.57Y-4.995
X7.545Y-3.1
X7.545Y-3.4
X3.045Y-2.24
X3.045Y-2.54
X11.295Y-2.235
X11.295Y-2.535
X10.545Y-3.01
X10.545Y-3.31
X2.295Y-3.01
X2.295Y-3.31
X3.045Y-4.515
X3.045Y-4.815
X8.295Y-4.52
X8.295Y-4.82
X11.9Y-2.745
X12.2Y-2.745
X7.79Y-4.995
X8.09Y-4.995
X7.545Y-3.765
X7.545Y-4.065
X3.795Y-3.76
X3.795Y-4.06
X9.045Y-3.755
X9.045Y-4.055
X12.045Y-3.0
X12.045Y-3.3
X10.545Y-3.76
X10.545Y-4.06
X9.795Y-1.485
X9.795Y-1.785
X2.295Y-3.745
X2.295Y-4.045
X6.795Y-4.5
X6.795Y-4.8
X3.275Y-4.995
X3.575Y-4.995
X2.295Y-1.48
X2.295Y-1.78
X8.53Y-4.995
X8.83Y-4.995
X7.545Y-4.52
X7.545Y-4.82
X6.27Y-1.995
X6.57Y-1.995
X3.795Y-4.52
X3.795Y-4.82
X5.295Y-1.5
X5.295Y-1.8
X9.045Y-4.52
X9.045Y-4.82
X10.545Y-4.52
X10.545Y-4.82
X2.295Y-4.5
X2.295Y-4.8
X1.76Y-4.245
X2.06Y-4.245
X3.795Y-1.5
X3.795Y-1.8
X9.045Y-1.495
X9.045Y-1.795
X6.045Y-1.505
X6.045Y-1.805
X6.28Y-2.745
X6.58Y-2.745
X4.035Y-4.995
X4.335Y-4.995
X4.545Y-3.765
X4.545Y-4.065
X5.295Y-2.24
X5.295Y-2.54
X8.295Y-3.005
X8.295Y-3.305
X10.78Y-4.995
X11.08Y-4.995
X6.045Y-3.775
X6.045Y-4.075
X1.76Y-4.995
X2.06Y-4.995
X3.795Y-2.24
X3.795Y-2.54
X9.045Y-2.255
X9.045Y-2.555
X6.045Y-2.25
X6.045Y-2.55
X6.045Y-3.0
X6.045Y-3.3
X9.795Y-3.755
X9.795Y-4.055
X6.795Y-3.1
X6.795Y-3.4
X4.545Y-1.5
X4.545Y-1.8
X5.295Y-3.0
X5.295Y-3.3
X10.785Y-1.995
X11.085Y-1.995
X6.045Y-4.52
X6.045Y-4.82
X2.295Y-5.24
X2.295Y-5.54
X3.795Y-3.015
X3.795Y-3.315
X9.045Y-3.01
X9.045Y-3.31
X9.795Y-4.52
X9.795Y-4.82
X6.795Y-3.755
X6.795Y-4.055
X4.545Y-2.25
X4.545Y-2.55
X5.295Y-3.76
X5.295Y-4.06
X3.045Y-3.01
X3.045Y-3.31
X6.635Y-4.995
X6.935Y-4.995
X4.545Y-4.51
X4.545Y-4.81
X2.52Y-4.995
X2.82Y-4.995
X1.76Y-2.0
X2.06Y-2.0
X11.295Y-3.0
X11.295Y-3.3
X10.03Y-4.995
X10.33Y-4.995
X1.775Y-3.495
X2.075Y-3.495
X4.545Y-3.0
X4.545Y-3.3
X5.295Y-4.52
X5.295Y-4.82
X12.045Y-3.765
X12.045Y-4.065
X9.795Y-2.255
X9.795Y-2.555
X5.145Y-4.995
X5.445Y-4.995
X8.295Y-1.485
X8.295Y-1.785
X7.77Y-1.995
X8.07Y-1.995
X3.045Y-1.5
X3.045Y-1.8
X1.77Y-2.745
X2.07Y-2.745
X11.295Y-4.515
X11.295Y-4.815
X10.545Y-1.48
X10.545Y-1.78
X9.28Y-4.995
X9.58Y-4.995
X12.045Y-4.515
X12.045Y-4.815
X9.79Y-3.005
X9.79Y-3.305
X7.775Y-2.745
X8.075Y-2.745
T2
X11.38Y-1.4
X11.38Y-1.5
X6.87Y-1.48
X6.87Y-1.58
X6.87Y-1.68
X6.87Y-1.78
X6.87Y-1.88
X6.87Y-1.98
X6.87Y-2.08
X6.87Y-2.18
X6.87Y-2.28
X6.87Y-2.38
X6.87Y-2.48
X6.87Y-2.58
X6.87Y-2.68
X6.87Y-2.78
X6.87Y-2.88
X7.47Y-1.48
X7.47Y-1.58
X7.47Y-1.68
X7.47Y-1.78
X7.47Y-1.88
X7.47Y-1.98
X7.47Y-2.08
X7.47Y-2.18
X7.47Y-2.28
X7.47Y-2.38
X7.47Y-2.48
X7.47Y-2.58
X7.47Y-2.68
X7.47Y-2.78
X7.47Y-2.88
X11.38Y-1.74
X11.38Y-1.84
T3
X1.77Y-3.77
X2.02Y-3.67
X6.27Y-3.02
X6.52Y-2.92
X10.02Y-3.77
X10.27Y-3.67
X1.77Y-4.52
X2.02Y-4.42
X3.27Y-1.52
X3.52Y-1.42
X10.02Y-4.52
X10.27Y-4.42
X11.145Y-3.77
X11.395Y-3.67
X5.145Y-5.27
X5.395Y-5.17
X10.02Y-5.27
X10.27Y-5.17
X4.02Y-3.02
X4.27Y-2.92
X3.27Y-3.77
X3.52Y-3.67
X8.52Y-2.27
X8.77Y-2.17
X11.52Y-5.27
X11.77Y-5.17
X8.52Y-1.52
X8.77Y-1.42
X10.77Y-1.52
X11.02Y-1.42
X4.02Y-3.77
X4.27Y-3.67
X3.27Y-4.52
X3.52Y-4.42
X8.52Y-3.02
X8.77Y-2.92
X10.77Y-2.27
X11.02Y-2.17
X10.02Y-1.52
X10.27Y-1.42
X4.02Y-4.52
X4.27Y-4.42
X10.77Y-4.52
X11.02Y-4.42
X4.02Y-5.27
X4.27Y-5.17
X9.27Y-2.27
X9.52Y-2.17
X1.77Y-5.27
X2.02Y-5.17
X9.27Y-4.52
X9.52Y-4.42
X11.895Y-2.27
X12.145Y-2.17
X6.27Y-2.27
X6.52Y-2.17
X4.77Y-1.52
X5.02Y-1.42
X2.52Y-1.52
X2.77Y-1.42
X2.52Y-5.27
X2.77Y-5.17
X4.77Y-2.27
X5.02Y-2.17
X2.52Y-2.27
X2.77Y-2.17
X9.27Y-3.77
X9.52Y-3.67
X7.02Y-3.77
X7.27Y-3.67
X8.52Y-3.77
X8.77Y-3.67
X7.02Y-4.52
X7.27Y-4.42
X1.77Y-1.52
X2.02Y-1.42
X8.52Y-4.52
X8.77Y-4.42
X12.27Y-3.77
X12.52Y-3.67
X9.27Y-5.27
X9.52Y-5.17
X11.52Y-4.52
X11.77Y-4.42
X6.645Y-5.27
X6.895Y-5.17
X5.52Y-1.52
X5.77Y-1.42
X11.52Y-3.02
X11.77Y-2.92
X7.77Y-5.27
X8.02Y-5.17
X8.52Y-5.27
X8.77Y-5.17
X12.27Y-4.52
X12.52Y-4.42
X3.27Y-3.02
X3.52Y-2.92
X5.52Y-2.27
X5.77Y-2.17
X3.27Y-5.27
X3.52Y-5.17
X5.52Y-3.02
X5.77Y-2.92
X10.02Y-2.27
X10.27Y-2.17
X10.77Y-5.27
X11.02Y-5.17
X5.52Y-3.77
X5.77Y-3.67
X7.77Y-3.77
X8.02Y-3.67
X12.27Y-3.02
X12.52Y-2.92
X5.52Y-4.52
X5.77Y-4.42
X1.77Y-2.27
X2.02Y-2.17
X7.77Y-1.52
X8.02Y-1.42
X10.02Y-3.02
X10.27Y-2.92
X6.27Y-1.52
X6.52Y-1.42
X7.02Y-1.52
X7.27Y-1.42
X4.77Y-3.02
X5.02Y-2.92
X7.77Y-2.27
X8.02Y-2.17
X9.27Y-3.02
X9.52Y-2.92
X9.27Y-1.52
X9.52Y-1.42
X2.52Y-3.02
X2.77Y-2.92
X7.02Y-2.27
X7.27Y-2.17
X4.77Y-3.77
X5.02Y-3.67
X4.02Y-1.52
X4.27Y-1.42
X2.52Y-3.77
X2.77Y-3.67
X7.02Y-3.02
X7.27Y-2.92
X4.77Y-4.52
X5.02Y-4.42
X4.02Y-2.27
X4.27Y-2.17
X2.52Y-4.52
X2.77Y-4.42
X12.27Y-5.27
X12.52Y-5.17
X6.27Y-3.77
X6.52Y-3.67
X1.77Y-3.02
X2.02Y-2.92
X3.27Y-2.27
X3.52Y-2.17
X7.77Y-4.52
X8.02Y-4.42
X10.77Y-3.02
X11.02Y-2.92
X6.27Y-4.52
X6.52Y-4.42
X7.77Y-3.02
X8.02Y-2.92
T0
M30
