G04 #@! TF.GenerationSoftware,KiCad,Pcbnew,(5.1.6-0-10_14)*
G04 #@! TF.CreationDate,2020-07-14T21:26:00+02:00*
G04 #@! TF.ProjectId,can-ortholinear-keyboard,63616e2d-6f72-4746-986f-6c696e656172,0.1*
G04 #@! TF.SameCoordinates,Original*
G04 #@! TF.FileFunction,Copper,L1,Top*
G04 #@! TF.FilePolarity,Positive*
%FSLAX46Y46*%
G04 Gerber Fmt 4.6, Leading zero omitted, Abs format (unit mm)*
G04 Created by KiCad (PCBNEW (5.1.6-0-10_14)) date 2020-07-14 21:26:00*
%MOMM*%
%LPD*%
G01*
G04 APERTURE LIST*
G04 #@! TA.AperFunction,ComponentPad*
%ADD10C,2.200000*%
G04 #@! TD*
G04 #@! TA.AperFunction,ComponentPad*
%ADD11O,1.700000X1.700000*%
G04 #@! TD*
G04 #@! TA.AperFunction,ComponentPad*
%ADD12R,1.700000X1.700000*%
G04 #@! TD*
G04 #@! TA.AperFunction,ComponentPad*
%ADD13O,1.600000X1.600000*%
G04 #@! TD*
G04 #@! TA.AperFunction,ComponentPad*
%ADD14R,1.600000X1.600000*%
G04 #@! TD*
G04 #@! TA.AperFunction,Conductor*
%ADD15C,0.500000*%
G04 #@! TD*
G04 APERTURE END LIST*
D10*
X159258000Y-57658000D03*
X165608000Y-55118000D03*
X283083000Y-95758000D03*
X289433000Y-93218000D03*
X273558000Y-76708000D03*
X279908000Y-74168000D03*
X311658000Y-133858000D03*
X318008000Y-131318000D03*
X311658000Y-114808000D03*
X318008000Y-112268000D03*
X311658000Y-95758000D03*
X318008000Y-93218000D03*
X311658000Y-76708000D03*
X318008000Y-74168000D03*
D11*
X289052000Y-46736000D03*
D12*
X289052000Y-44196000D03*
D10*
X292608000Y-133858000D03*
X298958000Y-131318000D03*
X292608000Y-114808000D03*
X298958000Y-112268000D03*
X292608000Y-76708000D03*
X298958000Y-74168000D03*
X302133000Y-57658000D03*
X308483000Y-55118000D03*
D11*
X289052000Y-38100000D03*
D12*
X289052000Y-35560000D03*
D10*
X273558000Y-133858000D03*
X279908000Y-131318000D03*
X273558000Y-114808000D03*
X279908000Y-112268000D03*
X273558000Y-57658000D03*
X279908000Y-55118000D03*
X273558000Y-38608000D03*
X279908000Y-36068000D03*
X254508000Y-133858000D03*
X260858000Y-131318000D03*
X254508000Y-114808000D03*
X260858000Y-112268000D03*
X254508000Y-95758000D03*
X260858000Y-93218000D03*
X254508000Y-76708000D03*
X260858000Y-74168000D03*
X254508000Y-57658000D03*
X260858000Y-55118000D03*
X254508000Y-38608000D03*
X260858000Y-36068000D03*
X235458000Y-133858000D03*
X241808000Y-131318000D03*
X235458000Y-114808000D03*
X241808000Y-112268000D03*
X235458000Y-95758000D03*
X241808000Y-93218000D03*
X235458000Y-76708000D03*
X241808000Y-74168000D03*
X235458000Y-57658000D03*
X241808000Y-55118000D03*
X235458000Y-38608000D03*
X241808000Y-36068000D03*
X216408000Y-133858000D03*
X222758000Y-131318000D03*
X216408000Y-114808000D03*
X222758000Y-112268000D03*
X216408000Y-95758000D03*
X222758000Y-93218000D03*
X216408000Y-76708000D03*
X222758000Y-74168000D03*
X216408000Y-57658000D03*
X222758000Y-55118000D03*
X216408000Y-38608000D03*
X222758000Y-36068000D03*
X197358000Y-133858000D03*
X203708000Y-131318000D03*
X197358000Y-114808000D03*
X203708000Y-112268000D03*
X197358000Y-95758000D03*
X203708000Y-93218000D03*
X197358000Y-76708000D03*
X203708000Y-74168000D03*
X197358000Y-57658000D03*
X203708000Y-55118000D03*
X197358000Y-38608000D03*
X203708000Y-36068000D03*
X178308000Y-114808000D03*
X184658000Y-112268000D03*
X178308000Y-95758000D03*
X184658000Y-93218000D03*
X178308000Y-76708000D03*
X184658000Y-74168000D03*
X178308000Y-57658000D03*
X184658000Y-55118000D03*
X178308000Y-38608000D03*
X184658000Y-36068000D03*
X168783000Y-133858000D03*
X175133000Y-131318000D03*
X159258000Y-114808000D03*
X165608000Y-112268000D03*
X159258000Y-95758000D03*
X165608000Y-93218000D03*
X159258000Y-76708000D03*
X165608000Y-74168000D03*
X159258000Y-38608000D03*
X165608000Y-36068000D03*
X140208000Y-114808000D03*
X146558000Y-112268000D03*
X140208000Y-95758000D03*
X146558000Y-93218000D03*
X140208000Y-76708000D03*
X146558000Y-74168000D03*
X140208000Y-57658000D03*
X146558000Y-55118000D03*
X140208000Y-38608000D03*
X146558000Y-36068000D03*
X130683000Y-133858000D03*
X137033000Y-131318000D03*
X121158000Y-114808000D03*
X127508000Y-112268000D03*
X121158000Y-95758000D03*
X127508000Y-93218000D03*
X121158000Y-76708000D03*
X127508000Y-74168000D03*
X121158000Y-57658000D03*
X127508000Y-55118000D03*
X121158000Y-38608000D03*
X127508000Y-36068000D03*
X102108000Y-133858000D03*
X108458000Y-131318000D03*
X102108000Y-114808000D03*
X108458000Y-112268000D03*
X102108000Y-95758000D03*
X108458000Y-93218000D03*
X102108000Y-76708000D03*
X108458000Y-74168000D03*
X102108000Y-57658000D03*
X108458000Y-55118000D03*
X102108000Y-38608000D03*
X108458000Y-36068000D03*
X83058000Y-133858000D03*
X89408000Y-131318000D03*
X83058000Y-114808000D03*
X89408000Y-112268000D03*
X83058000Y-95758000D03*
X89408000Y-93218000D03*
X83058000Y-76708000D03*
X89408000Y-74168000D03*
X83058000Y-57658000D03*
X89408000Y-55118000D03*
X83058000Y-38608000D03*
X89408000Y-36068000D03*
X64008000Y-133858000D03*
X70358000Y-131318000D03*
X64008000Y-114808000D03*
X70358000Y-112268000D03*
X64008000Y-95758000D03*
X70358000Y-93218000D03*
X64008000Y-76708000D03*
X70358000Y-74168000D03*
X64008000Y-57658000D03*
X70358000Y-55118000D03*
X64008000Y-38608000D03*
X70358000Y-36068000D03*
X44958000Y-133858000D03*
X51308000Y-131318000D03*
X44958000Y-114808000D03*
X51308000Y-112268000D03*
X44958000Y-95758000D03*
X51308000Y-93218000D03*
X44958000Y-76708000D03*
X51308000Y-74168000D03*
X44958000Y-57658000D03*
X51308000Y-55118000D03*
X44958000Y-38608000D03*
X51308000Y-36068000D03*
D13*
X311658000Y-126873000D03*
D14*
X319278000Y-126873000D03*
D13*
X305943000Y-114681000D03*
D14*
X305943000Y-122301000D03*
D13*
X305943000Y-95631000D03*
D14*
X305943000Y-103251000D03*
D13*
X305943000Y-76200000D03*
D14*
X305943000Y-83820000D03*
D13*
X286893000Y-56769000D03*
D14*
X286893000Y-64389000D03*
D13*
X292862000Y-126873000D03*
D14*
X300482000Y-126873000D03*
D13*
X286893000Y-114681000D03*
D14*
X286893000Y-122301000D03*
D13*
X286893000Y-76200000D03*
D14*
X286893000Y-83820000D03*
D13*
X309880000Y-69723000D03*
D14*
X302260000Y-69723000D03*
D13*
X281559000Y-50673000D03*
D14*
X273939000Y-50673000D03*
D13*
X273812000Y-126873000D03*
D14*
X281432000Y-126873000D03*
D13*
X267843000Y-114808000D03*
D14*
X267843000Y-122428000D03*
D13*
X267843000Y-95504000D03*
D14*
X267843000Y-103124000D03*
D13*
X267843000Y-76454000D03*
D14*
X267843000Y-84074000D03*
D13*
X267843000Y-57150000D03*
D14*
X267843000Y-64770000D03*
D13*
X267843000Y-37592000D03*
D14*
X267843000Y-45212000D03*
D13*
X254762000Y-126873000D03*
D14*
X262382000Y-126873000D03*
D13*
X248793000Y-114808000D03*
D14*
X248793000Y-122428000D03*
D13*
X248793000Y-95377000D03*
D14*
X248793000Y-102997000D03*
D13*
X248666000Y-76327000D03*
D14*
X248666000Y-83947000D03*
D13*
X248793000Y-57277000D03*
D14*
X248793000Y-64897000D03*
D13*
X248793000Y-37719000D03*
D14*
X248793000Y-45339000D03*
D13*
X235712000Y-126873000D03*
D14*
X243332000Y-126873000D03*
D13*
X229743000Y-114808000D03*
D14*
X229743000Y-122428000D03*
D13*
X229743000Y-95377000D03*
D14*
X229743000Y-102997000D03*
D13*
X229743000Y-76454000D03*
D14*
X229743000Y-84074000D03*
D13*
X229743000Y-57277000D03*
D14*
X229743000Y-64897000D03*
D13*
X229743000Y-37973000D03*
D14*
X229743000Y-45593000D03*
D13*
X216662000Y-126873000D03*
D14*
X224282000Y-126873000D03*
D13*
X210693000Y-114808000D03*
D14*
X210693000Y-122428000D03*
D13*
X210693000Y-95631000D03*
D14*
X210693000Y-103251000D03*
D13*
X210693000Y-76327000D03*
D14*
X210693000Y-83947000D03*
D13*
X210693000Y-57023000D03*
D14*
X210693000Y-64643000D03*
D13*
X210693000Y-37719000D03*
D14*
X210693000Y-45339000D03*
D13*
X197866000Y-126873000D03*
D14*
X205486000Y-126873000D03*
D13*
X191643000Y-114808000D03*
D14*
X191643000Y-122428000D03*
D13*
X191643000Y-95631000D03*
D14*
X191643000Y-103251000D03*
D13*
X191643000Y-78740000D03*
D14*
X191643000Y-86360000D03*
D13*
X197485000Y-69723000D03*
D14*
X205105000Y-69723000D03*
D13*
X197358000Y-50673000D03*
D14*
X204978000Y-50673000D03*
D13*
X172593000Y-114300000D03*
D14*
X172593000Y-121920000D03*
D13*
X172593000Y-95377000D03*
D14*
X172593000Y-102997000D03*
D13*
X172593000Y-78740000D03*
D14*
X172593000Y-86360000D03*
D13*
X167132000Y-69723000D03*
D14*
X159512000Y-69723000D03*
D13*
X166878000Y-50673000D03*
D14*
X159258000Y-50673000D03*
D13*
X168529000Y-126873000D03*
D14*
X176149000Y-126873000D03*
D13*
X153543000Y-114808000D03*
D14*
X153543000Y-122428000D03*
D13*
X153543000Y-95885000D03*
D14*
X153543000Y-103505000D03*
D13*
X153543000Y-76200000D03*
D14*
X153543000Y-83820000D03*
D13*
X153543000Y-57150000D03*
D14*
X153543000Y-64770000D03*
D13*
X153543000Y-38227000D03*
D14*
X153543000Y-45847000D03*
D13*
X134493000Y-114808000D03*
D14*
X134493000Y-122428000D03*
D13*
X134493000Y-95504000D03*
D14*
X134493000Y-103124000D03*
D13*
X134493000Y-76200000D03*
D14*
X134493000Y-83820000D03*
D13*
X134493000Y-56896000D03*
D14*
X134493000Y-64516000D03*
D13*
X134493000Y-38100000D03*
D14*
X134493000Y-45720000D03*
D13*
X130683000Y-126873000D03*
D14*
X138303000Y-126873000D03*
D13*
X115443000Y-114554000D03*
D14*
X115443000Y-122174000D03*
D13*
X115443000Y-95631000D03*
D14*
X115443000Y-103251000D03*
D13*
X115443000Y-76200000D03*
D14*
X115443000Y-83820000D03*
D13*
X115443000Y-57150000D03*
D14*
X115443000Y-64770000D03*
D13*
X115443000Y-38100000D03*
D14*
X115443000Y-45720000D03*
D13*
X102489000Y-126873000D03*
D14*
X110109000Y-126873000D03*
D13*
X96393000Y-114808000D03*
D14*
X96393000Y-122428000D03*
D13*
X96393000Y-95504000D03*
D14*
X96393000Y-103124000D03*
D13*
X96393000Y-76581000D03*
D14*
X96393000Y-84201000D03*
D13*
X96393000Y-56896000D03*
D14*
X96393000Y-64516000D03*
D13*
X96393000Y-38100000D03*
D14*
X96393000Y-45720000D03*
D13*
X83185000Y-126873000D03*
D14*
X90805000Y-126873000D03*
D13*
X77343000Y-114681000D03*
D14*
X77343000Y-122301000D03*
D13*
X77343000Y-95504000D03*
D14*
X77343000Y-103124000D03*
D13*
X77343000Y-76454000D03*
D14*
X77343000Y-84074000D03*
D13*
X77343000Y-56896000D03*
D14*
X77343000Y-64516000D03*
D13*
X77343000Y-38100000D03*
D14*
X77343000Y-45720000D03*
D13*
X64008000Y-126873000D03*
D14*
X71628000Y-126873000D03*
D13*
X58293000Y-114300000D03*
D14*
X58293000Y-121920000D03*
D13*
X58293000Y-95123000D03*
D14*
X58293000Y-102743000D03*
D13*
X58293000Y-76454000D03*
D14*
X58293000Y-84074000D03*
D13*
X58293000Y-56896000D03*
D14*
X58293000Y-64516000D03*
D13*
X58293000Y-37592000D03*
D14*
X58293000Y-45212000D03*
D13*
X58293000Y-140716000D03*
D14*
X58293000Y-133096000D03*
D13*
X44704000Y-126873000D03*
D14*
X52324000Y-126873000D03*
D13*
X44704000Y-107823000D03*
D14*
X52324000Y-107823000D03*
D13*
X45085000Y-88773000D03*
D14*
X52705000Y-88773000D03*
D13*
X44958000Y-69723000D03*
D14*
X52578000Y-69723000D03*
D13*
X44704000Y-50800000D03*
D14*
X52324000Y-50800000D03*
D13*
X189738000Y-37592000D03*
X174498000Y-37592000D03*
X189738000Y-73152000D03*
X174498000Y-40132000D03*
X189738000Y-70612000D03*
X174498000Y-42672000D03*
X189738000Y-68072000D03*
X174498000Y-45212000D03*
X189738000Y-65532000D03*
X174498000Y-47752000D03*
X189738000Y-62992000D03*
X174498000Y-50292000D03*
X189738000Y-60452000D03*
X174498000Y-52832000D03*
X189738000Y-57912000D03*
X174498000Y-55372000D03*
X189738000Y-55372000D03*
X174498000Y-57912000D03*
X189738000Y-52832000D03*
X174498000Y-60452000D03*
X189738000Y-50292000D03*
X174498000Y-62992000D03*
X189738000Y-47752000D03*
X174498000Y-65532000D03*
X189738000Y-45212000D03*
X174498000Y-68072000D03*
X189738000Y-42672000D03*
X174498000Y-70612000D03*
X189738000Y-40132000D03*
D14*
X174498000Y-73152000D03*
D15*
X287401000Y-33909000D02*
X289052000Y-35560000D01*
X193421000Y-33909000D02*
X287401000Y-33909000D01*
X189738000Y-37592000D02*
X193421000Y-33909000D01*
X298958000Y-131318000D02*
X298958000Y-112268000D01*
X299466000Y-79883000D02*
X299466000Y-74676000D01*
X301752000Y-82169000D02*
X299466000Y-79883000D01*
X301752000Y-109474000D02*
X301752000Y-82169000D01*
X299466000Y-74676000D02*
X298958000Y-74168000D01*
X298958000Y-112268000D02*
X301752000Y-109474000D01*
X308737000Y-55372000D02*
X308483000Y-55118000D01*
X308737000Y-61595000D02*
X308737000Y-55372000D01*
X298958000Y-74168000D02*
X298958000Y-70524998D01*
X305347998Y-64135000D02*
X306197000Y-64135000D01*
X306197000Y-64135000D02*
X308737000Y-61595000D01*
X298958000Y-70524998D02*
X305347998Y-64135000D01*
X300355000Y-55118000D02*
X308483000Y-55118000D01*
X289052000Y-35560000D02*
X286523991Y-38088009D01*
X298969990Y-56503010D02*
X300355000Y-55118000D01*
X292551336Y-56503010D02*
X298969990Y-56503010D01*
X286523991Y-50475665D02*
X292551336Y-56503010D01*
X286523991Y-38088009D02*
X286523991Y-50475665D01*
X279908000Y-131318000D02*
X279908000Y-112268000D01*
X280543000Y-74803000D02*
X279908000Y-74168000D01*
X280543000Y-84328000D02*
X280543000Y-74803000D01*
X289433000Y-93218000D02*
X280543000Y-84328000D01*
X289941000Y-93726000D02*
X289433000Y-93218000D01*
X289941000Y-102235000D02*
X289941000Y-93726000D01*
X279908000Y-112268000D02*
X289941000Y-102235000D01*
X279908000Y-74168000D02*
X279908000Y-55118000D01*
X279908000Y-55118000D02*
X279908000Y-36068000D01*
X260858000Y-131318000D02*
X260858000Y-112268000D01*
X260858000Y-112268000D02*
X260858000Y-93218000D01*
X260858000Y-93218000D02*
X260858000Y-74168000D01*
X260858000Y-55118000D02*
X260858000Y-74168000D01*
X260858000Y-36068000D02*
X260858000Y-55118000D01*
X241808000Y-36068000D02*
X241808000Y-55118000D01*
X241808000Y-55118000D02*
X241808000Y-74168000D01*
X241808000Y-74168000D02*
X241808000Y-93218000D01*
X241808000Y-93218000D02*
X241808000Y-112268000D01*
X241808000Y-112268000D02*
X241808000Y-131318000D01*
X222758000Y-131318000D02*
X222758000Y-112268000D01*
X222758000Y-112268000D02*
X222758000Y-93218000D01*
X222758000Y-93218000D02*
X222758000Y-74168000D01*
X222758000Y-74168000D02*
X222758000Y-55118000D01*
X222758000Y-36068000D02*
X222758000Y-55118000D01*
X203708000Y-131318000D02*
X203708000Y-112268000D01*
X202608001Y-50542997D02*
X202608001Y-54018001D01*
X202608001Y-54018001D02*
X203708000Y-55118000D01*
X203708000Y-49442998D02*
X202608001Y-50542997D01*
X203708000Y-36068000D02*
X203708000Y-49442998D01*
X203708000Y-55118000D02*
X203708000Y-74168000D01*
X203708000Y-74168000D02*
X203708000Y-93218000D01*
X203708000Y-93218000D02*
X203708000Y-112268000D01*
X314833000Y-58166000D02*
X314833000Y-70993000D01*
X309753000Y-53086000D02*
X314833000Y-58166000D01*
X298958000Y-53086000D02*
X309753000Y-53086000D01*
X289052000Y-44196000D02*
X287274000Y-45974000D01*
X296291000Y-55753000D02*
X298958000Y-53086000D01*
X314833000Y-70993000D02*
X318008000Y-74168000D01*
X287274000Y-50165000D02*
X292862000Y-55753000D01*
X292862000Y-55753000D02*
X296291000Y-55753000D01*
X287274000Y-45974000D02*
X287274000Y-50165000D01*
X317977999Y-112298001D02*
X318008000Y-112268000D01*
X317977999Y-131287999D02*
X317977999Y-112298001D01*
X318008000Y-131318000D02*
X317977999Y-131287999D01*
X318008000Y-112268000D02*
X318008000Y-93218000D01*
X318008000Y-74168000D02*
X318008000Y-93218000D01*
X184658000Y-36068000D02*
X184658000Y-55118000D01*
X184658000Y-55118000D02*
X184658000Y-74168000D01*
X184658000Y-74168000D02*
X184658000Y-93218000D01*
X184658000Y-93218000D02*
X184658000Y-112268000D01*
X165577999Y-55087999D02*
X165608000Y-55118000D01*
X165577999Y-36098001D02*
X165577999Y-55087999D01*
X165608000Y-36068000D02*
X165577999Y-36098001D01*
X165608000Y-55118000D02*
X165608000Y-74168000D01*
X165608000Y-74168000D02*
X165608000Y-93218000D01*
X165608000Y-93218000D02*
X165608000Y-112268000D01*
X175133000Y-130556000D02*
X175133000Y-131318000D01*
X165608000Y-121031000D02*
X175133000Y-130556000D01*
X165608000Y-112268000D02*
X165608000Y-121031000D01*
X191769996Y-59943996D02*
X191769996Y-73824656D01*
X188548001Y-117996001D02*
X179671002Y-126873000D01*
X189738000Y-57912000D02*
X191769996Y-59943996D01*
X191769996Y-73824656D02*
X188548001Y-77046651D01*
X188548001Y-77046651D02*
X188548001Y-117996001D01*
X179671002Y-126873000D02*
X176149000Y-126873000D01*
X146558000Y-112268000D02*
X146558000Y-93218000D01*
X146558000Y-93218000D02*
X146558000Y-74168000D01*
X146558000Y-74168000D02*
X146558000Y-55118000D01*
X146558000Y-55118000D02*
X146558000Y-36068000D01*
X192520007Y-58154007D02*
X192520007Y-74135319D01*
X189738000Y-55372000D02*
X192520007Y-58154007D01*
X189357000Y-77298326D02*
X189357000Y-120142000D01*
X189357000Y-120142000D02*
X191643000Y-122428000D01*
X192520007Y-74135319D02*
X189357000Y-77298326D01*
X127508000Y-121793000D02*
X127508000Y-112268000D01*
X137033000Y-131318000D02*
X127508000Y-121793000D01*
X127508000Y-93218000D02*
X127508000Y-112268000D01*
X127508000Y-93218000D02*
X127508000Y-74168000D01*
X127508000Y-74168000D02*
X127508000Y-55118000D01*
X127508000Y-36068000D02*
X127508000Y-55118000D01*
X190107010Y-77608990D02*
X190107010Y-101715010D01*
X193270018Y-74445982D02*
X190107010Y-77608990D01*
X190107010Y-101715010D02*
X191643000Y-103251000D01*
X193270018Y-56364018D02*
X193270018Y-74445982D01*
X189738000Y-52832000D02*
X193270018Y-56364018D01*
X108458000Y-131318000D02*
X108458000Y-112268000D01*
X108458000Y-112268000D02*
X108458000Y-93218000D01*
X108458000Y-93218000D02*
X108458000Y-74168000D01*
X108458000Y-74168000D02*
X108458000Y-55118000D01*
X108458000Y-55118000D02*
X108458000Y-36068000D01*
X194020027Y-83982973D02*
X191643000Y-86360000D01*
X194020027Y-54574027D02*
X194020027Y-83982973D01*
X189738000Y-50292000D02*
X194020027Y-54574027D01*
X89408000Y-131318000D02*
X89408000Y-112268000D01*
X89408000Y-93218000D02*
X89408000Y-112268000D01*
X89408000Y-74168000D02*
X89408000Y-93218000D01*
X89408000Y-74168000D02*
X89408000Y-55118000D01*
X89408000Y-36068000D02*
X89408000Y-55118000D01*
X50208001Y-49232999D02*
X50208001Y-54018001D01*
X51308000Y-48133000D02*
X50208001Y-49232999D01*
X50208001Y-54018001D02*
X51308000Y-55118000D01*
X51308000Y-36068000D02*
X51308000Y-48133000D01*
X50208001Y-73068001D02*
X51308000Y-74168000D01*
X50208001Y-68790999D02*
X50208001Y-73068001D01*
X51308000Y-67691000D02*
X50208001Y-68790999D01*
X51308000Y-55118000D02*
X51308000Y-67691000D01*
X51308000Y-74168000D02*
X51308000Y-93218000D01*
X50208001Y-130218001D02*
X51308000Y-131318000D01*
X50208001Y-124924999D02*
X50208001Y-130218001D01*
X51308000Y-123825000D02*
X50208001Y-124924999D01*
X51308000Y-112268000D02*
X51308000Y-123825000D01*
X50208001Y-111168001D02*
X51308000Y-112268000D01*
X50208001Y-106128999D02*
X50208001Y-111168001D01*
X51308000Y-105029000D02*
X50208001Y-106128999D01*
X51308000Y-93218000D02*
X51308000Y-105029000D01*
X70327999Y-112298001D02*
X70358000Y-112268000D01*
X70327999Y-131287999D02*
X70327999Y-112298001D01*
X70358000Y-131318000D02*
X70327999Y-131287999D01*
X70358000Y-112268000D02*
X70358000Y-93218000D01*
X70358000Y-93218000D02*
X70358000Y-74168000D01*
X70358000Y-74168000D02*
X70358000Y-55118000D01*
X70358000Y-55118000D02*
X70358000Y-36068000D01*
X45503999Y-39153999D02*
X44958000Y-38608000D01*
X45503999Y-50000001D02*
X45503999Y-39153999D01*
X44704000Y-50800000D02*
X45503999Y-50000001D01*
X45757999Y-58457999D02*
X44958000Y-57658000D01*
X45757999Y-68923001D02*
X45757999Y-58457999D01*
X44958000Y-69723000D02*
X45757999Y-68923001D01*
X45085000Y-76835000D02*
X44958000Y-76708000D01*
X45085000Y-88773000D02*
X45085000Y-76835000D01*
X46057999Y-106469001D02*
X44704000Y-107823000D01*
X46057999Y-96857999D02*
X46057999Y-106469001D01*
X44958000Y-95758000D02*
X46057999Y-96857999D01*
X45038001Y-114888001D02*
X44958000Y-114808000D01*
X45038001Y-126538999D02*
X45038001Y-114888001D01*
X44704000Y-126873000D02*
X45038001Y-126538999D01*
X49385998Y-140716000D02*
X45038001Y-136368003D01*
X45038001Y-133938001D02*
X44958000Y-133858000D01*
X45038001Y-136368003D02*
X45038001Y-133938001D01*
X58293000Y-140716000D02*
X49385998Y-140716000D01*
X62992000Y-37592000D02*
X64008000Y-38608000D01*
X58293000Y-37592000D02*
X62992000Y-37592000D01*
X63246000Y-56896000D02*
X64008000Y-57658000D01*
X58293000Y-56896000D02*
X63246000Y-56896000D01*
X63754000Y-76708000D02*
X64262000Y-77216000D01*
X63754000Y-76454000D02*
X64008000Y-76708000D01*
X58293000Y-76454000D02*
X63754000Y-76454000D01*
X63373000Y-95123000D02*
X64008000Y-95758000D01*
X58293000Y-95123000D02*
X63373000Y-95123000D01*
X63246000Y-114808000D02*
X64262000Y-115824000D01*
X63500000Y-114300000D02*
X64008000Y-114808000D01*
X58293000Y-114300000D02*
X63500000Y-114300000D01*
X64008000Y-133858000D02*
X64008000Y-126873000D01*
X82550000Y-38100000D02*
X83058000Y-38608000D01*
X77343000Y-38100000D02*
X82550000Y-38100000D01*
X83058000Y-57404000D02*
X83566000Y-57912000D01*
X82296000Y-56896000D02*
X83058000Y-57658000D01*
X77343000Y-56896000D02*
X82296000Y-56896000D01*
X83058000Y-76708000D02*
X83566000Y-77216000D01*
X77597000Y-76708000D02*
X77343000Y-76454000D01*
X83058000Y-76708000D02*
X77597000Y-76708000D01*
X83058000Y-96012000D02*
X83566000Y-96520000D01*
X77597000Y-95758000D02*
X77343000Y-95504000D01*
X83058000Y-95758000D02*
X77597000Y-95758000D01*
X77470000Y-114808000D02*
X77343000Y-114681000D01*
X83058000Y-114808000D02*
X77470000Y-114808000D01*
X83058000Y-127000000D02*
X83185000Y-126873000D01*
X83058000Y-133858000D02*
X83058000Y-127000000D01*
X102362000Y-38100000D02*
X102870000Y-38608000D01*
X96901000Y-38608000D02*
X96393000Y-38100000D01*
X102108000Y-38608000D02*
X96901000Y-38608000D01*
X97155000Y-57658000D02*
X96393000Y-56896000D01*
X102108000Y-57658000D02*
X97155000Y-57658000D01*
X102362000Y-76708000D02*
X102870000Y-77216000D01*
X96520000Y-76708000D02*
X96393000Y-76581000D01*
X102108000Y-76708000D02*
X96520000Y-76708000D01*
X101854000Y-95504000D02*
X102870000Y-96520000D01*
X101854000Y-95504000D02*
X102108000Y-95758000D01*
X96393000Y-95504000D02*
X101854000Y-95504000D01*
X96393000Y-114808000D02*
X102108000Y-114808000D01*
X102108000Y-127254000D02*
X102489000Y-126873000D01*
X102108000Y-133858000D02*
X102108000Y-127254000D01*
X120650000Y-38100000D02*
X121158000Y-38608000D01*
X115443000Y-38100000D02*
X120650000Y-38100000D01*
X115951000Y-57658000D02*
X115443000Y-57150000D01*
X121158000Y-57658000D02*
X115951000Y-57658000D01*
X115951000Y-76708000D02*
X115443000Y-76200000D01*
X121158000Y-76708000D02*
X115951000Y-76708000D01*
X115570000Y-95758000D02*
X115443000Y-95631000D01*
X121158000Y-95758000D02*
X115570000Y-95758000D01*
X115697000Y-114808000D02*
X115443000Y-114554000D01*
X121158000Y-114808000D02*
X115697000Y-114808000D01*
X130683000Y-133858000D02*
X130683000Y-126873000D01*
X135001000Y-38608000D02*
X134493000Y-38100000D01*
X140208000Y-38608000D02*
X135001000Y-38608000D01*
X135255000Y-57658000D02*
X134493000Y-56896000D01*
X140208000Y-57658000D02*
X135255000Y-57658000D01*
X135001000Y-76708000D02*
X134493000Y-76200000D01*
X140208000Y-76708000D02*
X135001000Y-76708000D01*
X134747000Y-95758000D02*
X134493000Y-95504000D01*
X140208000Y-95758000D02*
X134747000Y-95758000D01*
X134493000Y-114808000D02*
X140208000Y-114808000D01*
X158877000Y-38227000D02*
X159258000Y-38608000D01*
X153543000Y-38227000D02*
X158877000Y-38227000D01*
X158750000Y-57150000D02*
X159258000Y-57658000D01*
X153543000Y-57150000D02*
X158750000Y-57150000D01*
X158750000Y-76200000D02*
X159258000Y-76708000D01*
X153543000Y-76200000D02*
X158750000Y-76200000D01*
X159131000Y-95885000D02*
X159258000Y-95758000D01*
X153543000Y-95885000D02*
X159131000Y-95885000D01*
X153543000Y-114808000D02*
X159258000Y-114808000D01*
X168529000Y-133604000D02*
X168783000Y-133858000D01*
X168529000Y-126873000D02*
X168529000Y-133604000D01*
X171831000Y-37465000D02*
X171831000Y-45720000D01*
X171831000Y-45720000D02*
X166878000Y-50673000D01*
X173482000Y-35814000D02*
X171831000Y-37465000D01*
X175514000Y-35814000D02*
X173482000Y-35814000D01*
X178308000Y-38608000D02*
X175514000Y-35814000D01*
X172466000Y-75057000D02*
X167132000Y-69723000D01*
X179407999Y-71290001D02*
X175641000Y-75057000D01*
X179407999Y-58757999D02*
X179407999Y-71290001D01*
X175641000Y-75057000D02*
X172466000Y-75057000D01*
X178308000Y-57658000D02*
X179407999Y-58757999D01*
X174625000Y-76708000D02*
X172593000Y-78740000D01*
X178308000Y-76708000D02*
X174625000Y-76708000D01*
X172974000Y-95758000D02*
X172593000Y-95377000D01*
X178308000Y-95758000D02*
X172974000Y-95758000D01*
X173101000Y-114808000D02*
X172593000Y-114300000D01*
X178308000Y-114808000D02*
X173101000Y-114808000D01*
X198457999Y-49573001D02*
X197358000Y-50673000D01*
X198457999Y-39707999D02*
X198457999Y-49573001D01*
X197358000Y-38608000D02*
X198457999Y-39707999D01*
X198457999Y-68750001D02*
X197485000Y-69723000D01*
X198457999Y-58757999D02*
X198457999Y-68750001D01*
X197358000Y-57658000D02*
X198457999Y-58757999D01*
X197866000Y-133350000D02*
X197358000Y-133858000D01*
X197866000Y-126873000D02*
X197866000Y-133350000D01*
X215519000Y-37719000D02*
X216408000Y-38608000D01*
X210693000Y-37719000D02*
X215519000Y-37719000D01*
X211328000Y-57658000D02*
X210693000Y-57023000D01*
X216408000Y-57658000D02*
X211328000Y-57658000D01*
X216027000Y-76327000D02*
X216408000Y-76708000D01*
X210693000Y-76327000D02*
X216027000Y-76327000D01*
X210820000Y-95758000D02*
X210693000Y-95631000D01*
X216408000Y-95758000D02*
X210820000Y-95758000D01*
X216408000Y-114808000D02*
X210693000Y-114808000D01*
X216408000Y-127127000D02*
X216662000Y-126873000D01*
X216408000Y-133858000D02*
X216408000Y-127127000D01*
X234823000Y-37973000D02*
X235458000Y-38608000D01*
X229743000Y-37973000D02*
X234823000Y-37973000D01*
X235077000Y-57277000D02*
X235458000Y-57658000D01*
X229743000Y-57277000D02*
X235077000Y-57277000D01*
X235204000Y-76454000D02*
X235458000Y-76708000D01*
X229743000Y-76454000D02*
X235204000Y-76454000D01*
X235077000Y-95377000D02*
X235458000Y-95758000D01*
X229743000Y-95377000D02*
X235077000Y-95377000D01*
X229743000Y-114808000D02*
X235458000Y-114808000D01*
X235712000Y-133604000D02*
X235458000Y-133858000D01*
X235712000Y-126873000D02*
X235712000Y-133604000D01*
X253619000Y-37719000D02*
X254508000Y-38608000D01*
X248793000Y-37719000D02*
X253619000Y-37719000D01*
X254127000Y-57277000D02*
X254508000Y-57658000D01*
X248793000Y-57277000D02*
X254127000Y-57277000D01*
X249047000Y-76708000D02*
X248666000Y-76327000D01*
X254508000Y-76708000D02*
X249047000Y-76708000D01*
X249174000Y-95758000D02*
X248793000Y-95377000D01*
X254508000Y-95758000D02*
X249174000Y-95758000D01*
X254508000Y-114808000D02*
X248793000Y-114808000D01*
X254508000Y-127127000D02*
X254762000Y-126873000D01*
X254508000Y-133858000D02*
X254508000Y-127127000D01*
X268859000Y-38608000D02*
X267843000Y-37592000D01*
X273558000Y-38608000D02*
X268859000Y-38608000D01*
X268351000Y-57658000D02*
X267843000Y-57150000D01*
X273558000Y-57658000D02*
X268351000Y-57658000D01*
X268097000Y-76708000D02*
X267843000Y-76454000D01*
X273558000Y-76708000D02*
X268097000Y-76708000D01*
X268097000Y-95758000D02*
X267843000Y-95504000D01*
X283083000Y-95758000D02*
X268097000Y-95758000D01*
X273558000Y-114808000D02*
X267843000Y-114808000D01*
X273558000Y-127127000D02*
X273812000Y-126873000D01*
X273558000Y-133858000D02*
X273558000Y-127127000D01*
X287401000Y-76708000D02*
X286893000Y-76200000D01*
X292608000Y-76708000D02*
X287401000Y-76708000D01*
X287020000Y-114808000D02*
X286893000Y-114681000D01*
X292608000Y-114808000D02*
X287020000Y-114808000D01*
X292862000Y-133604000D02*
X292608000Y-133858000D01*
X292862000Y-126873000D02*
X292862000Y-133604000D01*
X311150000Y-76200000D02*
X311658000Y-76708000D01*
X305943000Y-76200000D02*
X311150000Y-76200000D01*
X311531000Y-95631000D02*
X311658000Y-95758000D01*
X305943000Y-95631000D02*
X311531000Y-95631000D01*
X306070000Y-114808000D02*
X305943000Y-114681000D01*
X311658000Y-114808000D02*
X306070000Y-114808000D01*
X311658000Y-133858000D02*
X311658000Y-126873000D01*
M02*
