<?xml version="1.0" encoding="UTF-8" standalone="no"?>
<svg
   xmlns:dc="http://purl.org/dc/elements/1.1/"
   xmlns:cc="http://creativecommons.org/ns#"
   xmlns:rdf="http://www.w3.org/1999/02/22-rdf-syntax-ns#"
   xmlns:svg="http://www.w3.org/2000/svg"
   xmlns="http://www.w3.org/2000/svg"
   xmlns:sodipodi="http://sodipodi.sourceforge.net/DTD/sodipodi-0.dtd"
   xmlns:inkscape="http://www.inkscape.org/namespaces/inkscape"
   inkscape:version="1.0 (4035a4f, 2020-05-01)"
   sodipodi:docname="cherry-no-stabilizers.svg"
   id="svg176"
   version="1.1"
   viewBox="0.000 0.000 295.752 124.302"
   height="124.302mm"
   width="295.752mm">
  <metadata
     id="metadata182">
    <rdf:RDF>
      <cc:Work
         rdf:about="">
        <dc:format>image/svg+xml</dc:format>
        <dc:type
           rdf:resource="http://purl.org/dc/dcmitype/StillImage" />
      </cc:Work>
    </rdf:RDF>
  </metadata>
  <defs
     id="defs180" />
  <sodipodi:namedview
     inkscape:current-layer="svg176"
     inkscape:window-maximized="1"
     inkscape:window-y="23"
     inkscape:window-x="0"
     inkscape:cy="78.076501"
     inkscape:cx="963.22968"
     inkscape:zoom="2.9987398"
     inkscape:snap-center="true"
     inkscape:snap-object-midpoints="true"
     inkscape:snap-smooth-nodes="true"
     inkscape:snap-bbox-midpoints="true"
     inkscape:snap-bbox-edge-midpoints="true"
     inkscape:bbox-nodes="true"
     inkscape:bbox-paths="true"
     inkscape:snap-bbox="true"
     inkscape:snap-intersection-paths="true"
     inkscape:object-paths="true"
     inkscape:snap-midpoints="true"
     showgrid="false"
     id="namedview178"
     inkscape:window-height="855"
     inkscape:window-width="1440"
     inkscape:pageshadow="2"
     inkscape:pageopacity="0"
     guidetolerance="10"
     gridtolerance="10"
     objecttolerance="10"
     borderopacity="1"
     bordercolor="#666666"
     pagecolor="#ffffff" />
  <polygon
     id="polygon10"
     style="fill:none;stroke-width:0.050000mm;stroke:black"
     points="290.752,119.301 5.001,119.301 5.001,5.001 290.752,5.001" />
  <polygon
     id="polygon12"
     style="fill:none;stroke-width:0.050000mm;stroke:black"
     points="274.226,102.775 274.226,103.775 273.426,103.775 273.426,106.875 274.226,106.875 274.226,112.676 273.426,112.676 273.426,115.775 274.226,115.775 274.226,116.775 288.226,116.775 288.226,115.775 289.026,115.775 289.026,112.676 288.226,112.676 288.226,106.875 289.026,106.875 289.026,103.775 288.226,103.775 288.226,102.775" />
  <polygon
     id="polygon14"
     style="fill:none;stroke-width:0.050000mm;stroke:black"
     points="255.176,102.775 255.176,103.775 254.376,103.775 254.376,106.875 255.176,106.875 255.176,112.676 254.376,112.676 254.376,115.775 255.176,115.775 255.176,116.775 269.176,116.775 269.176,115.775 269.976,115.775 269.976,112.676 269.176,112.676 269.176,106.875 269.976,106.875 269.976,103.775 269.176,103.775 269.176,102.775" />
  <polygon
     id="polygon16"
     style="fill:none;stroke-width:0.050000mm;stroke:black"
     points="236.126,102.775 236.126,103.775 235.326,103.775 235.326,106.875 236.126,106.875 236.126,112.676 235.326,112.676 235.326,115.775 236.126,115.775 236.126,116.775 250.126,116.775 250.126,115.775 250.926,115.775 250.926,112.676 250.126,112.676 250.126,106.875 250.926,106.875 250.926,103.775 250.126,103.775 250.126,102.775" />
  <polygon
     id="polygon18"
     style="fill:none;stroke-width:0.050000mm;stroke:black"
     points="217.076,102.775 217.076,103.775 216.276,103.775 216.276,106.875 217.076,106.875 217.076,112.676 216.276,112.676 216.276,115.775 217.076,115.775 217.076,116.775 231.076,116.775 231.076,115.775 231.876,115.775 231.876,112.676 231.076,112.676 231.076,106.875 231.876,106.875 231.876,103.775 231.076,103.775 231.076,102.775" />
  <polygon
     id="polygon20"
     style="fill:none;stroke-width:0.050000mm;stroke:black"
     points="198.026,102.775 198.026,103.775 197.226,103.775 197.226,106.875 198.026,106.875 198.026,112.676 197.226,112.676 197.226,115.775 198.026,115.775 198.026,116.775 212.026,116.775 212.026,115.775 212.826,115.775 212.826,112.676 212.026,112.676 212.026,106.875 212.826,106.875 212.826,103.775 212.026,103.775 212.026,102.775" />
  <polygon
     id="polygon22"
     style="fill:none;stroke-width:0.050000mm;stroke:black"
     points="178.976,102.775 178.976,103.775 178.176,103.775 178.176,106.875 178.976,106.875 178.976,112.676 178.176,112.676 178.176,115.775 178.976,115.775 178.976,116.775 192.976,116.775 192.976,115.775 193.776,115.775 193.776,112.676 192.976,112.676 192.976,106.875 193.776,106.875 193.776,103.775 192.976,103.775 192.976,102.775" />
  <polygon
     id="polygon24"
     style="fill:none;stroke-width:0.050000mm;stroke:black"
     points="159.926,102.775 159.926,103.775 159.126,103.775 159.126,106.875 159.926,106.875 159.926,112.676 159.126,112.676 159.126,115.775 159.926,115.775 159.926,116.775 173.926,116.775 173.926,115.775 174.726,115.775 174.726,112.676 173.926,112.676 173.926,106.875 174.726,106.875 174.726,103.775 173.926,103.775 173.926,102.775" />
  <polygon
     id="polygon26"
     style="fill:none;stroke-width:0.050000mm;stroke:black"
     points="131.351,102.775 131.351,103.775 130.550,103.775 130.550,106.875 131.351,106.875 131.351,112.676 130.550,112.676 130.550,115.775 131.351,115.775 131.351,116.775 145.351,116.775 145.351,115.775 146.151,115.775 146.151,112.676 145.351,112.676 145.351,106.875 146.151,106.875 146.151,103.775 145.351,103.775 145.351,102.775" />
  <polygon
     id="polygon28"
     style="fill:none;stroke-width:0.050000mm;stroke:black"
     points="93.251,102.775 93.251,103.775 92.451,103.775 92.451,106.875 93.251,106.875 93.251,112.676 92.451,112.676 92.451,115.775 93.251,115.775 93.251,116.775 107.251,116.775 107.251,115.775 108.051,115.775 108.051,112.676 107.251,112.676 107.251,106.875 108.051,106.875 108.051,103.775 107.251,103.775 107.251,102.775" />
  <polygon
     id="polygon30"
     style="fill:none;stroke-width:0.050000mm;stroke:black"
     points="64.676,102.775 64.676,103.775 63.876,103.775 63.876,106.875 64.676,106.875 64.676,112.676 63.876,112.676 63.876,115.775 64.676,115.775 64.676,116.775 78.676,116.775 78.676,115.775 79.476,115.775 79.476,112.676 78.676,112.676 78.676,106.875 79.476,106.875 79.476,103.775 78.676,103.775 78.676,102.775" />
  <polygon
     id="polygon32"
     style="fill:none;stroke-width:0.050000mm;stroke:black"
     points="45.626,102.775 45.626,103.775 44.826,103.775 44.826,106.875 45.626,106.875 45.626,112.676 44.826,112.676 44.826,115.775 45.626,115.775 45.626,116.775 59.626,116.775 59.626,115.775 60.426,115.775 60.426,112.676 59.626,112.676 59.626,106.875 60.426,106.875 60.426,103.775 59.626,103.775 59.626,102.775" />
  <polygon
     id="polygon34"
     style="fill:none;stroke-width:0.050000mm;stroke:black"
     points="26.576,102.775 26.576,103.775 25.776,103.775 25.776,106.875 26.576,106.875 26.576,112.676 25.776,112.676 25.776,115.775 26.576,115.775 26.576,116.775 40.576,116.775 40.576,115.775 41.376,115.775 41.376,112.676 40.576,112.676 40.576,106.875 41.376,106.875 41.376,103.775 40.576,103.775 40.576,102.775" />
  <polygon
     id="polygon36"
     style="fill:none;stroke-width:0.050000mm;stroke:black"
     points="7.526,102.775 7.526,103.775 6.726,103.775 6.726,106.875 7.526,106.875 7.526,112.676 6.726,112.676 6.726,115.775 7.526,115.775 7.526,116.775 21.526,116.775 21.526,115.775 22.326,115.775 22.326,112.676 21.526,112.676 21.526,106.875 22.326,106.875 22.326,103.775 21.526,103.775 21.526,102.775" />
  <polygon
     id="polygon38"
     style="fill:none;stroke-width:0.050000mm;stroke:black"
     points="255.176,83.726 255.176,84.726 254.376,84.726 254.376,87.825 255.176,87.825 255.176,93.626 254.376,93.626 254.376,96.726 255.176,96.726 255.176,97.726 269.176,97.726 269.176,96.726 269.976,96.726 269.976,93.626 269.176,93.626 269.176,87.825 269.976,87.825 269.976,84.726 269.176,84.726 269.176,83.726" />
  <polygon
     id="polygon40"
     style="fill:none;stroke-width:0.050000mm;stroke:black"
     points="217.076,83.726 217.076,84.726 216.276,84.726 216.276,87.825 217.076,87.825 217.076,93.626 216.276,93.626 216.276,96.726 217.076,96.726 217.076,97.726 231.076,97.726 231.076,96.726 231.876,96.726 231.876,93.626 231.076,93.626 231.076,87.825 231.876,87.825 231.876,84.726 231.076,84.726 231.076,83.726" />
  <polygon
     id="polygon42"
     style="fill:none;stroke-width:0.050000mm;stroke:black"
     points="198.026,83.726 198.026,84.726 197.226,84.726 197.226,87.825 198.026,87.825 198.026,93.626 197.226,93.626 197.226,96.726 198.026,96.726 198.026,97.726 212.026,97.726 212.026,96.726 212.826,96.726 212.826,93.626 212.026,93.626 212.026,87.825 212.826,87.825 212.826,84.726 212.026,84.726 212.026,83.726" />
  <polygon
     id="polygon44"
     style="fill:none;stroke-width:0.050000mm;stroke:black"
     points="178.976,83.726 178.976,84.726 178.176,84.726 178.176,87.825 178.976,87.825 178.976,93.626 178.176,93.626 178.176,96.726 178.976,96.726 178.976,97.726 192.976,97.726 192.976,96.726 193.776,96.726 193.776,93.626 192.976,93.626 192.976,87.825 193.776,87.825 193.776,84.726 192.976,84.726 192.976,83.726" />
  <polygon
     id="polygon46"
     style="fill:none;stroke-width:0.050000mm;stroke:black"
     points="159.926,83.726 159.926,84.726 159.126,84.726 159.126,87.825 159.926,87.825 159.926,93.626 159.126,93.626 159.126,96.726 159.926,96.726 159.926,97.726 173.926,97.726 173.926,96.726 174.726,96.726 174.726,93.626 173.926,93.626 173.926,87.825 174.726,87.825 174.726,84.726 173.926,84.726 173.926,83.726" />
  <polygon
     id="polygon48"
     style="fill:none;stroke-width:0.050000mm;stroke:black"
     points="140.876,83.726 140.876,84.726 140.076,84.726 140.076,87.825 140.876,87.825 140.876,93.626 140.076,93.626 140.076,96.726 140.876,96.726 140.876,97.726 154.876,97.726 154.876,96.726 155.676,96.726 155.676,93.626 154.876,93.626 154.876,87.825 155.676,87.825 155.676,84.726 154.876,84.726 154.876,83.726" />
  <polygon
     id="polygon50"
     style="fill:none;stroke-width:0.050000mm;stroke:black"
     points="121.825,83.726 121.825,84.726 121.025,84.726 121.025,87.825 121.825,87.825 121.825,93.626 121.025,93.626 121.025,96.726 121.825,96.726 121.825,97.726 135.826,97.726 135.826,96.726 136.626,96.726 136.626,93.626 135.826,93.626 135.826,87.825 136.626,87.825 136.626,84.726 135.826,84.726 135.826,83.726" />
  <polygon
     id="polygon52"
     style="fill:none;stroke-width:0.050000mm;stroke:black"
     points="102.775,83.726 102.775,84.726 101.976,84.726 101.976,87.825 102.775,87.825 102.775,93.626 101.976,93.626 101.976,96.726 102.775,96.726 102.775,97.726 116.775,97.726 116.775,96.726 117.575,96.726 117.575,93.626 116.775,93.626 116.775,87.825 117.575,87.825 117.575,84.726 116.775,84.726 116.775,83.726" />
  <polygon
     id="polygon54"
     style="fill:none;stroke-width:0.050000mm;stroke:black"
     points="83.726,83.726 83.726,84.726 82.926,84.726 82.926,87.825 83.726,87.825 83.726,93.626 82.926,93.626 82.926,96.726 83.726,96.726 83.726,97.726 97.726,97.726 97.726,96.726 98.525,96.726 98.525,93.626 97.726,93.626 97.726,87.825 98.525,87.825 98.525,84.726 97.726,84.726 97.726,83.726" />
  <polygon
     id="polygon56"
     style="fill:none;stroke-width:0.050000mm;stroke:black"
     points="64.676,83.726 64.676,84.726 63.876,84.726 63.876,87.825 64.676,87.825 64.676,93.626 63.876,93.626 63.876,96.726 64.676,96.726 64.676,97.726 78.676,97.726 78.676,96.726 79.476,96.726 79.476,93.626 78.676,93.626 78.676,87.825 79.476,87.825 79.476,84.726 78.676,84.726 78.676,83.726" />
  <polygon
     id="polygon58"
     style="fill:none;stroke-width:0.050000mm;stroke:black"
     points="45.626,83.726 45.626,84.726 44.826,84.726 44.826,87.825 45.626,87.825 45.626,93.626 44.826,93.626 44.826,96.726 45.626,96.726 45.626,97.726 59.626,97.726 59.626,96.726 60.426,96.726 60.426,93.626 59.626,93.626 59.626,87.825 60.426,87.825 60.426,84.726 59.626,84.726 59.626,83.726" />
  <polygon
     id="polygon60"
     style="fill:none;stroke-width:0.050000mm;stroke:black"
     points="26.576,83.726 26.576,84.726 25.776,84.726 25.776,87.825 26.576,87.825 26.576,93.626 25.776,93.626 25.776,96.726 26.576,96.726 26.576,97.726 40.576,97.726 40.576,96.726 41.376,96.726 41.376,93.626 40.576,93.626 40.576,87.825 41.376,87.825 41.376,84.726 40.576,84.726 40.576,83.726" />
  <polygon
     id="polygon62"
     style="fill:none;stroke-width:0.050000mm;stroke:black"
     points="7.526,83.726 7.526,84.726 6.726,84.726 6.726,87.825 7.526,87.825 7.526,93.626 6.726,93.626 6.726,96.726 7.526,96.726 7.526,97.726 21.526,97.726 21.526,96.726 22.326,96.726 22.326,93.626 21.526,93.626 21.526,87.825 22.326,87.825 22.326,84.726 21.526,84.726 21.526,83.726" />
  <polygon
     id="polygon64"
     style="fill:none;stroke-width:0.050000mm;stroke:black"
     points="274.226,64.676 274.226,65.676 273.426,65.676 273.426,68.775 274.226,68.775 274.226,74.576 273.426,74.576 273.426,77.676 274.226,77.676 274.226,78.676 288.226,78.676 288.226,77.676 289.026,77.676 289.026,74.576 288.226,74.576 288.226,68.775 289.026,68.775 289.026,65.676 288.226,65.676 288.226,64.676" />
  <polygon
     id="polygon66"
     style="fill:none;stroke-width:0.050000mm;stroke:black"
     points="245.651,64.676 245.651,65.676 244.851,65.676 244.851,68.775 245.651,68.775 245.651,74.576 244.851,74.576 244.851,77.676 245.651,77.676 245.651,78.676 259.650,78.676 259.650,77.676 260.451,77.676 260.451,74.576 259.650,74.576 259.650,68.775 260.451,68.775 260.451,65.676 259.650,65.676 259.650,64.676" />
  <polygon
     id="polygon68"
     style="fill:none;stroke-width:0.050000mm;stroke:black"
     points="217.076,64.676 217.076,65.676 216.276,65.676 216.276,68.775 217.076,68.775 217.076,74.576 216.276,74.576 216.276,77.676 217.076,77.676 217.076,78.676 231.076,78.676 231.076,77.676 231.876,77.676 231.876,74.576 231.076,74.576 231.076,68.775 231.876,68.775 231.876,65.676 231.076,65.676 231.076,64.676" />
  <polygon
     id="polygon70"
     style="fill:none;stroke-width:0.050000mm;stroke:black"
     points="198.026,64.676 198.026,65.676 197.226,65.676 197.226,68.775 198.026,68.775 198.026,74.576 197.226,74.576 197.226,77.676 198.026,77.676 198.026,78.676 212.026,78.676 212.026,77.676 212.826,77.676 212.826,74.576 212.026,74.576 212.026,68.775 212.826,68.775 212.826,65.676 212.026,65.676 212.026,64.676" />
  <polygon
     id="polygon72"
     style="fill:none;stroke-width:0.050000mm;stroke:black"
     points="178.976,64.676 178.976,65.676 178.176,65.676 178.176,68.775 178.976,68.775 178.976,74.576 178.176,74.576 178.176,77.676 178.976,77.676 178.976,78.676 192.976,78.676 192.976,77.676 193.776,77.676 193.776,74.576 192.976,74.576 192.976,68.775 193.776,68.775 193.776,65.676 192.976,65.676 192.976,64.676" />
  <polygon
     id="polygon74"
     style="fill:none;stroke-width:0.050000mm;stroke:black"
     points="159.926,64.676 159.926,65.676 159.126,65.676 159.126,68.775 159.926,68.775 159.926,74.576 159.126,74.576 159.126,77.676 159.926,77.676 159.926,78.676 173.926,78.676 173.926,77.676 174.726,77.676 174.726,74.576 173.926,74.576 173.926,68.775 174.726,68.775 174.726,65.676 173.926,65.676 173.926,64.676" />
  <polygon
     id="polygon76"
     style="fill:none;stroke-width:0.050000mm;stroke:black"
     points="140.876,64.676 140.876,65.676 140.076,65.676 140.076,68.775 140.876,68.775 140.876,74.576 140.076,74.576 140.076,77.676 140.876,77.676 140.876,78.676 154.876,78.676 154.876,77.676 155.676,77.676 155.676,74.576 154.876,74.576 154.876,68.775 155.676,68.775 155.676,65.676 154.876,65.676 154.876,64.676" />
  <polygon
     id="polygon78"
     style="fill:none;stroke-width:0.050000mm;stroke:black"
     points="121.825,64.676 121.825,65.676 121.025,65.676 121.025,68.775 121.825,68.775 121.825,74.576 121.025,74.576 121.025,77.676 121.825,77.676 121.825,78.676 135.826,78.676 135.826,77.676 136.626,77.676 136.626,74.576 135.826,74.576 135.826,68.775 136.626,68.775 136.626,65.676 135.826,65.676 135.826,64.676" />
  <polygon
     id="polygon80"
     style="fill:none;stroke-width:0.050000mm;stroke:black"
     points="102.775,64.676 102.775,65.676 101.976,65.676 101.976,68.775 102.775,68.775 102.775,74.576 101.976,74.576 101.976,77.676 102.775,77.676 102.775,78.676 116.775,78.676 116.775,77.676 117.575,77.676 117.575,74.576 116.775,74.576 116.775,68.775 117.575,68.775 117.575,65.676 116.775,65.676 116.775,64.676" />
  <polygon
     id="polygon82"
     style="fill:none;stroke-width:0.050000mm;stroke:black"
     points="83.726,64.676 83.726,65.676 82.926,65.676 82.926,68.775 83.726,68.775 83.726,74.576 82.926,74.576 82.926,77.676 83.726,77.676 83.726,78.676 97.726,78.676 97.726,77.676 98.525,77.676 98.525,74.576 97.726,74.576 97.726,68.775 98.525,68.775 98.525,65.676 97.726,65.676 97.726,64.676" />
  <polygon
     id="polygon84"
     style="fill:none;stroke-width:0.050000mm;stroke:black"
     points="64.676,64.676 64.676,65.676 63.876,65.676 63.876,68.775 64.676,68.775 64.676,74.576 63.876,74.576 63.876,77.676 64.676,77.676 64.676,78.676 78.676,78.676 78.676,77.676 79.476,77.676 79.476,74.576 78.676,74.576 78.676,68.775 79.476,68.775 79.476,65.676 78.676,65.676 78.676,64.676" />
  <polygon
     id="polygon86"
     style="fill:none;stroke-width:0.050000mm;stroke:black"
     points="45.626,64.676 45.626,65.676 44.826,65.676 44.826,68.775 45.626,68.775 45.626,74.576 44.826,74.576 44.826,77.676 45.626,77.676 45.626,78.676 59.626,78.676 59.626,77.676 60.426,77.676 60.426,74.576 59.626,74.576 59.626,68.775 60.426,68.775 60.426,65.676 59.626,65.676 59.626,64.676" />
  <polygon
     id="polygon88"
     style="fill:none;stroke-width:0.050000mm;stroke:black"
     points="26.576,64.676 26.576,65.676 25.776,65.676 25.776,68.775 26.576,68.775 26.576,74.576 25.776,74.576 25.776,77.676 26.576,77.676 26.576,78.676 40.576,78.676 40.576,77.676 41.376,77.676 41.376,74.576 40.576,74.576 40.576,68.775 41.376,68.775 41.376,65.676 40.576,65.676 40.576,64.676" />
  <polygon
     id="polygon90"
     style="fill:none;stroke-width:0.050000mm;stroke:black"
     points="7.526,64.676 7.526,65.676 6.726,65.676 6.726,68.775 7.526,68.775 7.526,74.576 6.726,74.576 6.726,77.676 7.526,77.676 7.526,78.676 21.526,78.676 21.526,77.676 22.326,77.676 22.326,74.576 21.526,74.576 21.526,68.775 22.326,68.775 22.326,65.676 21.526,65.676 21.526,64.676" />
  <polygon
     id="polygon92"
     style="fill:none;stroke-width:0.050000mm;stroke:black"
     points="274.226,45.626 274.226,46.626 273.426,46.626 273.426,49.726 274.226,49.726 274.226,55.526 273.426,55.526 273.426,58.626 274.226,58.626 274.226,59.626 288.226,59.626 288.226,58.626 289.026,58.626 289.026,55.526 288.226,55.526 288.226,49.726 289.026,49.726 289.026,46.626 288.226,46.626 288.226,45.626" />
  <polygon
     id="polygon94"
     style="fill:none;stroke-width:0.050000mm;stroke:black"
     points="255.176,45.626 255.176,46.626 254.376,46.626 254.376,49.726 255.176,49.726 255.176,55.526 254.376,55.526 254.376,58.626 255.176,58.626 255.176,59.626 269.176,59.626 269.176,58.626 269.976,58.626 269.976,55.526 269.176,55.526 269.176,49.726 269.976,49.726 269.976,46.626 269.176,46.626 269.176,45.626" />
  <polygon
     id="polygon96"
     style="fill:none;stroke-width:0.050000mm;stroke:black"
     points="236.126,45.626 236.126,46.626 235.326,46.626 235.326,49.726 236.126,49.726 236.126,55.526 235.326,55.526 235.326,58.626 236.126,58.626 236.126,59.626 250.126,59.626 250.126,58.626 250.926,58.626 250.926,55.526 250.126,55.526 250.126,49.726 250.926,49.726 250.926,46.626 250.126,46.626 250.126,45.626" />
  <polygon
     id="polygon98"
     style="fill:none;stroke-width:0.050000mm;stroke:black"
     points="217.076,45.626 217.076,46.626 216.276,46.626 216.276,49.726 217.076,49.726 217.076,55.526 216.276,55.526 216.276,58.626 217.076,58.626 217.076,59.626 231.076,59.626 231.076,58.626 231.876,58.626 231.876,55.526 231.076,55.526 231.076,49.726 231.876,49.726 231.876,46.626 231.076,46.626 231.076,45.626" />
  <polygon
     id="polygon100"
     style="fill:none;stroke-width:0.050000mm;stroke:black"
     points="198.026,45.626 198.026,46.626 197.226,46.626 197.226,49.726 198.026,49.726 198.026,55.526 197.226,55.526 197.226,58.626 198.026,58.626 198.026,59.626 212.026,59.626 212.026,58.626 212.826,58.626 212.826,55.526 212.026,55.526 212.026,49.726 212.826,49.726 212.826,46.626 212.026,46.626 212.026,45.626" />
  <polygon
     id="polygon102"
     style="fill:none;stroke-width:0.050000mm;stroke:black"
     points="178.976,45.626 178.976,46.626 178.176,46.626 178.176,49.726 178.976,49.726 178.976,55.526 178.176,55.526 178.176,58.626 178.976,58.626 178.976,59.626 192.976,59.626 192.976,58.626 193.776,58.626 193.776,55.526 192.976,55.526 192.976,49.726 193.776,49.726 193.776,46.626 192.976,46.626 192.976,45.626" />
  <polygon
     id="polygon104"
     style="fill:none;stroke-width:0.050000mm;stroke:black"
     points="159.926,45.626 159.926,46.626 159.126,46.626 159.126,49.726 159.926,49.726 159.926,55.526 159.126,55.526 159.126,58.626 159.926,58.626 159.926,59.626 173.926,59.626 173.926,58.626 174.726,58.626 174.726,55.526 173.926,55.526 173.926,49.726 174.726,49.726 174.726,46.626 173.926,46.626 173.926,45.626" />
  <polygon
     id="polygon106"
     style="fill:none;stroke-width:0.050000mm;stroke:black"
     points="140.876,45.626 140.876,46.626 140.076,46.626 140.076,49.726 140.876,49.726 140.876,55.526 140.076,55.526 140.076,58.626 140.876,58.626 140.876,59.626 154.876,59.626 154.876,58.626 155.676,58.626 155.676,55.526 154.876,55.526 154.876,49.726 155.676,49.726 155.676,46.626 154.876,46.626 154.876,45.626" />
  <polygon
     id="polygon108"
     style="fill:none;stroke-width:0.050000mm;stroke:black"
     points="121.825,45.626 121.825,46.626 121.025,46.626 121.025,49.726 121.825,49.726 121.825,55.526 121.025,55.526 121.025,58.626 121.825,58.626 121.825,59.626 135.826,59.626 135.826,58.626 136.626,58.626 136.626,55.526 135.826,55.526 135.826,49.726 136.626,49.726 136.626,46.626 135.826,46.626 135.826,45.626" />
  <polygon
     id="polygon110"
     style="fill:none;stroke-width:0.050000mm;stroke:black"
     points="102.775,45.626 102.775,46.626 101.976,46.626 101.976,49.726 102.775,49.726 102.775,55.526 101.976,55.526 101.976,58.626 102.775,58.626 102.775,59.626 116.775,59.626 116.775,58.626 117.575,58.626 117.575,55.526 116.775,55.526 116.775,49.726 117.575,49.726 117.575,46.626 116.775,46.626 116.775,45.626" />
  <polygon
     id="polygon112"
     style="fill:none;stroke-width:0.050000mm;stroke:black"
     points="83.726,45.626 83.726,46.626 82.926,46.626 82.926,49.726 83.726,49.726 83.726,55.526 82.926,55.526 82.926,58.626 83.726,58.626 83.726,59.626 97.726,59.626 97.726,58.626 98.525,58.626 98.525,55.526 97.726,55.526 97.726,49.726 98.525,49.726 98.525,46.626 97.726,46.626 97.726,45.626" />
  <polygon
     id="polygon114"
     style="fill:none;stroke-width:0.050000mm;stroke:black"
     points="64.676,45.626 64.676,46.626 63.876,46.626 63.876,49.726 64.676,49.726 64.676,55.526 63.876,55.526 63.876,58.626 64.676,58.626 64.676,59.626 78.676,59.626 78.676,58.626 79.476,58.626 79.476,55.526 78.676,55.526 78.676,49.726 79.476,49.726 79.476,46.626 78.676,46.626 78.676,45.626" />
  <polygon
     id="polygon116"
     style="fill:none;stroke-width:0.050000mm;stroke:black"
     points="45.626,45.626 45.626,46.626 44.826,46.626 44.826,49.726 45.626,49.726 45.626,55.526 44.826,55.526 44.826,58.626 45.626,58.626 45.626,59.626 59.626,59.626 59.626,58.626 60.426,58.626 60.426,55.526 59.626,55.526 59.626,49.726 60.426,49.726 60.426,46.626 59.626,46.626 59.626,45.626" />
  <polygon
     id="polygon118"
     style="fill:none;stroke-width:0.050000mm;stroke:black"
     points="26.576,45.626 26.576,46.626 25.776,46.626 25.776,49.726 26.576,49.726 26.576,55.526 25.776,55.526 25.776,58.626 26.576,58.626 26.576,59.626 40.576,59.626 40.576,58.626 41.376,58.626 41.376,55.526 40.576,55.526 40.576,49.726 41.376,49.726 41.376,46.626 40.576,46.626 40.576,45.626" />
  <polygon
     id="polygon120"
     style="fill:none;stroke-width:0.050000mm;stroke:black"
     points="7.526,45.626 7.526,46.626 6.726,46.626 6.726,49.726 7.526,49.726 7.526,55.526 6.726,55.526 6.726,58.626 7.526,58.626 7.526,59.626 21.526,59.626 21.526,58.626 22.326,58.626 22.326,55.526 21.526,55.526 21.526,49.726 22.326,49.726 22.326,46.626 21.526,46.626 21.526,45.626" />
  <polygon
     id="polygon122"
     style="fill:none;stroke-width:0.050000mm;stroke:black"
     points="264.701,26.576 264.701,27.576 263.901,27.576 263.901,30.676 264.701,30.676 264.701,36.476 263.901,36.476 263.901,39.576 264.701,39.576 264.701,40.576 278.701,40.576 278.701,39.576 279.501,39.576 279.501,36.476 278.701,36.476 278.701,30.676 279.501,30.676 279.501,27.576 278.701,27.576 278.701,26.576" />
  <polygon
     id="polygon124"
     style="fill:none;stroke-width:0.050000mm;stroke:black"
     points="236.126,26.576 236.126,27.576 235.326,27.576 235.326,30.676 236.126,30.676 236.126,36.476 235.326,36.476 235.326,39.576 236.126,39.576 236.126,40.576 250.126,40.576 250.126,39.576 250.926,39.576 250.926,36.476 250.126,36.476 250.126,30.676 250.926,30.676 250.926,27.576 250.126,27.576 250.126,26.576" />
  <polygon
     id="polygon126"
     style="fill:none;stroke-width:0.050000mm;stroke:black"
     points="217.076,26.576 217.076,27.576 216.276,27.576 216.276,30.676 217.076,30.676 217.076,36.476 216.276,36.476 216.276,39.576 217.076,39.576 217.076,40.576 231.076,40.576 231.076,39.576 231.876,39.576 231.876,36.476 231.076,36.476 231.076,30.676 231.876,30.676 231.876,27.576 231.076,27.576 231.076,26.576" />
  <polygon
     id="polygon128"
     style="fill:none;stroke-width:0.050000mm;stroke:black"
     points="198.026,26.576 198.026,27.576 197.226,27.576 197.226,30.676 198.026,30.676 198.026,36.476 197.226,36.476 197.226,39.576 198.026,39.576 198.026,40.576 212.026,40.576 212.026,39.576 212.826,39.576 212.826,36.476 212.026,36.476 212.026,30.676 212.826,30.676 212.826,27.576 212.026,27.576 212.026,26.576" />
  <polygon
     id="polygon130"
     style="fill:none;stroke-width:0.050000mm;stroke:black"
     points="178.976,26.576 178.976,27.576 178.176,27.576 178.176,30.676 178.976,30.676 178.976,36.476 178.176,36.476 178.176,39.576 178.976,39.576 178.976,40.576 192.976,40.576 192.976,39.576 193.776,39.576 193.776,36.476 192.976,36.476 192.976,30.676 193.776,30.676 193.776,27.576 192.976,27.576 192.976,26.576" />
  <polygon
     id="polygon132"
     style="fill:none;stroke-width:0.050000mm;stroke:black"
     points="159.926,26.576 159.926,27.576 159.126,27.576 159.126,30.676 159.926,30.676 159.926,36.476 159.126,36.476 159.126,39.576 159.926,39.576 159.926,40.576 173.926,40.576 173.926,39.576 174.726,39.576 174.726,36.476 173.926,36.476 173.926,30.676 174.726,30.676 174.726,27.576 173.926,27.576 173.926,26.576" />
  <polygon
     id="polygon134"
     style="fill:none;stroke-width:0.050000mm;stroke:black"
     points="140.876,26.576 140.876,27.576 140.076,27.576 140.076,30.676 140.876,30.676 140.876,36.476 140.076,36.476 140.076,39.576 140.876,39.576 140.876,40.576 154.876,40.576 154.876,39.576 155.676,39.576 155.676,36.476 154.876,36.476 154.876,30.676 155.676,30.676 155.676,27.576 154.876,27.576 154.876,26.576" />
  <polygon
     id="polygon136"
     style="fill:none;stroke-width:0.050000mm;stroke:black"
     points="121.825,26.576 121.825,27.576 121.025,27.576 121.025,30.676 121.825,30.676 121.825,36.476 121.025,36.476 121.025,39.576 121.825,39.576 121.825,40.576 135.826,40.576 135.826,39.576 136.626,39.576 136.626,36.476 135.826,36.476 135.826,30.676 136.626,30.676 136.626,27.576 135.826,27.576 135.826,26.576" />
  <polygon
     id="polygon138"
     style="fill:none;stroke-width:0.050000mm;stroke:black"
     points="102.775,26.576 102.775,27.576 101.976,27.576 101.976,30.676 102.775,30.676 102.775,36.476 101.976,36.476 101.976,39.576 102.775,39.576 102.775,40.576 116.775,40.576 116.775,39.576 117.575,39.576 117.575,36.476 116.775,36.476 116.775,30.676 117.575,30.676 117.575,27.576 116.775,27.576 116.775,26.576" />
  <polygon
     id="polygon140"
     style="fill:none;stroke-width:0.050000mm;stroke:black"
     points="83.726,26.576 83.726,27.576 82.926,27.576 82.926,30.676 83.726,30.676 83.726,36.476 82.926,36.476 82.926,39.576 83.726,39.576 83.726,40.576 97.726,40.576 97.726,39.576 98.525,39.576 98.525,36.476 97.726,36.476 97.726,30.676 98.525,30.676 98.525,27.576 97.726,27.576 97.726,26.576" />
  <polygon
     id="polygon142"
     style="fill:none;stroke-width:0.050000mm;stroke:black"
     points="64.676,26.576 64.676,27.576 63.876,27.576 63.876,30.676 64.676,30.676 64.676,36.476 63.876,36.476 63.876,39.576 64.676,39.576 64.676,40.576 78.676,40.576 78.676,39.576 79.476,39.576 79.476,36.476 78.676,36.476 78.676,30.676 79.476,30.676 79.476,27.576 78.676,27.576 78.676,26.576" />
  <polygon
     id="polygon144"
     style="fill:none;stroke-width:0.050000mm;stroke:black"
     points="45.626,26.576 45.626,27.576 44.826,27.576 44.826,30.676 45.626,30.676 45.626,36.476 44.826,36.476 44.826,39.576 45.626,39.576 45.626,40.576 59.626,40.576 59.626,39.576 60.426,39.576 60.426,36.476 59.626,36.476 59.626,30.676 60.426,30.676 60.426,27.576 59.626,27.576 59.626,26.576" />
  <polygon
     id="polygon146"
     style="fill:none;stroke-width:0.050000mm;stroke:black"
     points="26.576,26.576 26.576,27.576 25.776,27.576 25.776,30.676 26.576,30.676 26.576,36.476 25.776,36.476 25.776,39.576 26.576,39.576 26.576,40.576 40.576,40.576 40.576,39.576 41.376,39.576 41.376,36.476 40.576,36.476 40.576,30.676 41.376,30.676 41.376,27.576 40.576,27.576 40.576,26.576" />
  <polygon
     id="polygon148"
     style="fill:none;stroke-width:0.050000mm;stroke:black"
     points="7.526,26.576 7.526,27.576 6.726,27.576 6.726,30.676 7.526,30.676 7.526,36.476 6.726,36.476 6.726,39.576 7.526,39.576 7.526,40.576 21.526,40.576 21.526,39.576 22.326,39.576 22.326,36.476 21.526,36.476 21.526,30.676 22.326,30.676 22.326,27.576 21.526,27.576 21.526,26.576" />
  <polygon
     id="polygon150"
     style="fill:none;stroke-width:0.050000mm;stroke:black"
     points="236.126,7.526 236.126,8.526 235.326,8.526 235.326,11.626 236.126,11.626 236.126,17.426 235.326,17.426 235.326,20.526 236.126,20.526 236.126,21.526 250.126,21.526 250.126,20.526 250.926,20.526 250.926,17.426 250.126,17.426 250.126,11.626 250.926,11.626 250.926,8.526 250.126,8.526 250.126,7.526" />
  <polygon
     id="polygon152"
     style="fill:none;stroke-width:0.050000mm;stroke:black"
     points="217.076,7.526 217.076,8.526 216.276,8.526 216.276,11.626 217.076,11.626 217.076,17.426 216.276,17.426 216.276,20.526 217.076,20.526 217.076,21.526 231.076,21.526 231.076,20.526 231.876,20.526 231.876,17.426 231.076,17.426 231.076,11.626 231.876,11.626 231.876,8.526 231.076,8.526 231.076,7.526" />
  <polygon
     id="polygon154"
     style="fill:none;stroke-width:0.050000mm;stroke:black"
     points="198.026,7.526 198.026,8.526 197.226,8.526 197.226,11.626 198.026,11.626 198.026,17.426 197.226,17.426 197.226,20.526 198.026,20.526 198.026,21.526 212.026,21.526 212.026,20.526 212.826,20.526 212.826,17.426 212.026,17.426 212.026,11.626 212.826,11.626 212.826,8.526 212.026,8.526 212.026,7.526" />
  <polygon
     id="polygon156"
     style="fill:none;stroke-width:0.050000mm;stroke:black"
     points="178.976,7.526 178.976,8.526 178.176,8.526 178.176,11.626 178.976,11.626 178.976,17.426 178.176,17.426 178.176,20.526 178.976,20.526 178.976,21.526 192.976,21.526 192.976,20.526 193.776,20.526 193.776,17.426 192.976,17.426 192.976,11.626 193.776,11.626 193.776,8.526 192.976,8.526 192.976,7.526" />
  <polygon
     id="polygon158"
     style="fill:none;stroke-width:0.050000mm;stroke:black"
     points="159.926,7.526 159.926,8.526 159.126,8.526 159.126,11.626 159.926,11.626 159.926,17.426 159.126,17.426 159.126,20.526 159.926,20.526 159.926,21.526 173.926,21.526 173.926,20.526 174.726,20.526 174.726,17.426 173.926,17.426 173.926,11.626 174.726,11.626 174.726,8.526 173.926,8.526 173.926,7.526" />
  <polygon
     id="polygon160"
     style="fill:none;stroke-width:0.050000mm;stroke:black"
     points="140.876,7.526 140.876,8.526 140.076,8.526 140.076,11.626 140.876,11.626 140.876,17.426 140.076,17.426 140.076,20.526 140.876,20.526 140.876,21.526 154.876,21.526 154.876,20.526 155.676,20.526 155.676,17.426 154.876,17.426 154.876,11.626 155.676,11.626 155.676,8.526 154.876,8.526 154.876,7.526" />
  <polygon
     id="polygon162"
     style="fill:none;stroke-width:0.050000mm;stroke:black"
     points="121.825,7.526 121.825,8.526 121.025,8.526 121.025,11.626 121.825,11.626 121.825,17.426 121.025,17.426 121.025,20.526 121.825,20.526 121.825,21.526 135.826,21.526 135.826,20.526 136.626,20.526 136.626,17.426 135.826,17.426 135.826,11.626 136.626,11.626 136.626,8.526 135.826,8.526 135.826,7.526" />
  <polygon
     id="polygon164"
     style="fill:none;stroke-width:0.050000mm;stroke:black"
     points="102.775,7.526 102.775,8.526 101.976,8.526 101.976,11.626 102.775,11.626 102.775,17.426 101.976,17.426 101.976,20.526 102.775,20.526 102.775,21.526 116.775,21.526 116.775,20.526 117.575,20.526 117.575,17.426 116.775,17.426 116.775,11.626 117.575,11.626 117.575,8.526 116.775,8.526 116.775,7.526" />
  <polygon
     id="polygon166"
     style="fill:none;stroke-width:0.050000mm;stroke:black"
     points="83.726,7.526 83.726,8.526 82.926,8.526 82.926,11.626 83.726,11.626 83.726,17.426 82.926,17.426 82.926,20.526 83.726,20.526 83.726,21.526 97.726,21.526 97.726,20.526 98.525,20.526 98.525,17.426 97.726,17.426 97.726,11.626 98.525,11.626 98.525,8.526 97.726,8.526 97.726,7.526" />
  <polygon
     id="polygon168"
     style="fill:none;stroke-width:0.050000mm;stroke:black"
     points="64.676,7.526 64.676,8.526 63.876,8.526 63.876,11.626 64.676,11.626 64.676,17.426 63.876,17.426 63.876,20.526 64.676,20.526 64.676,21.526 78.676,21.526 78.676,20.526 79.476,20.526 79.476,17.426 78.676,17.426 78.676,11.626 79.476,11.626 79.476,8.526 78.676,8.526 78.676,7.526" />
  <polygon
     id="polygon170"
     style="fill:none;stroke-width:0.050000mm;stroke:black"
     points="45.626,7.526 45.626,8.526 44.826,8.526 44.826,11.626 45.626,11.626 45.626,17.426 44.826,17.426 44.826,20.526 45.626,20.526 45.626,21.526 59.626,21.526 59.626,20.526 60.426,20.526 60.426,17.426 59.626,17.426 59.626,11.626 60.426,11.626 60.426,8.526 59.626,8.526 59.626,7.526" />
  <polygon
     id="polygon172"
     style="fill:none;stroke-width:0.050000mm;stroke:black"
     points="26.576,7.526 26.576,8.526 25.776,8.526 25.776,11.626 26.576,11.626 26.576,17.426 25.776,17.426 25.776,20.526 26.576,20.526 26.576,21.526 40.576,21.526 40.576,20.526 41.376,20.526 41.376,17.426 40.576,17.426 40.576,11.626 41.376,11.626 41.376,8.526 40.576,8.526 40.576,7.526" />
  <polygon
     id="polygon174"
     style="fill:none;stroke-width:0.050000mm;stroke:black"
     points="7.526,7.526 7.526,8.526 6.726,8.526 6.726,11.626 7.526,11.626 7.526,17.426 6.726,17.426 6.726,20.526 7.526,20.526 7.526,21.526 21.526,21.526 21.526,20.526 22.326,20.526 22.326,17.426 21.526,17.426 21.526,11.626 22.326,11.626 22.326,8.526 21.526,8.526 21.526,7.526" />
  <circle
     style="opacity:1;fill:none;stroke:#000000;stroke-width:0.499999;stroke-linecap:square;paint-order:markers fill stroke"
     id="path188-3"
     cx="278.14001"
     cy="14.525999"
     r="3.9999998" />
  <circle
     r="3.9999998"
     cy="14.525999"
     cx="265.09003"
     id="path188-7-5"
     style="opacity:1;fill:none;stroke:#000000;stroke-width:0.499999;stroke-linecap:square;paint-order:markers fill stroke" />
</svg>
