M48
; DRILL file {KiCad (5.1.6-0-10_14)} date Tuesday, July 14, 2020 at 09:27:00 PM
; FORMAT={-:-/ absolute / inch / decimal}
; #@! TF.CreationDate,2020-07-14T21:27:00+02:00
; #@! TF.GenerationSoftware,Kicad,Pcbnew,(5.1.6-0-10_14)
; #@! TF.FileFunction,NonPlated,1,2,NPTH
FMAT,2
INCH
T1C0.0669
T2C0.1201
T3C0.1575
%
G90
G05
T1
X9.22Y-3.12
X9.62Y-3.12
X9.22Y-1.62
X9.62Y-1.62
X2.47Y-3.12
X2.87Y-3.12
X6.97Y-2.37
X7.37Y-2.37
X4.72Y-3.87
X5.12Y-3.87
X3.97Y-1.62
X4.37Y-1.62
X2.47Y-3.87
X2.87Y-3.87
X6.97Y-3.12
X7.37Y-3.12
X4.72Y-4.62
X5.12Y-4.62
X3.97Y-2.37
X4.37Y-2.37
X2.47Y-4.62
X2.87Y-4.62
X12.22Y-5.37
X12.62Y-5.37
X6.22Y-3.87
X6.62Y-3.87
X1.72Y-3.12
X2.12Y-3.12
X3.22Y-2.37
X3.62Y-2.37
X7.72Y-4.62
X8.12Y-4.62
X10.72Y-3.12
X11.12Y-3.12
X6.22Y-4.62
X6.62Y-4.62
X7.72Y-3.12
X8.12Y-3.12
X1.72Y-3.87
X2.12Y-3.87
X6.22Y-3.12
X6.62Y-3.12
X9.97Y-3.87
X10.37Y-3.87
X1.72Y-4.62
X2.12Y-4.62
X3.22Y-1.62
X3.62Y-1.62
X9.97Y-4.62
X10.37Y-4.62
X11.095Y-3.87
X11.495Y-3.87
X5.095Y-5.37
X5.495Y-5.37
X9.97Y-5.37
X10.37Y-5.37
X3.97Y-3.12
X4.37Y-3.12
X3.22Y-3.87
X3.62Y-3.87
X8.47Y-2.37
X8.87Y-2.37
X11.47Y-5.37
X11.87Y-5.37
X8.47Y-1.62
X8.87Y-1.62
X10.72Y-1.62
X11.12Y-1.62
X3.97Y-3.87
X4.37Y-3.87
X3.22Y-4.62
X3.62Y-4.62
X8.47Y-3.12
X8.87Y-3.12
X10.72Y-2.37
X11.12Y-2.37
X9.97Y-1.62
X10.37Y-1.62
X3.97Y-4.62
X4.37Y-4.62
X10.72Y-4.62
X11.12Y-4.62
X3.97Y-5.37
X4.37Y-5.37
X9.22Y-2.37
X9.62Y-2.37
X1.72Y-5.37
X2.12Y-5.37
X9.22Y-4.62
X9.62Y-4.62
X11.845Y-2.37
X12.245Y-2.37
X6.22Y-2.37
X6.62Y-2.37
X4.72Y-1.62
X5.12Y-1.62
X2.47Y-1.62
X2.87Y-1.62
X2.47Y-5.37
X2.87Y-5.37
X4.72Y-2.37
X5.12Y-2.37
X2.47Y-2.37
X2.87Y-2.37
X9.22Y-3.87
X9.62Y-3.87
X6.97Y-3.87
X7.37Y-3.87
X8.47Y-3.87
X8.87Y-3.87
X6.97Y-4.62
X7.37Y-4.62
X1.72Y-1.62
X2.12Y-1.62
X8.47Y-4.62
X8.87Y-4.62
X12.22Y-3.87
X12.62Y-3.87
X9.22Y-5.37
X9.62Y-5.37
X11.47Y-4.62
X11.87Y-4.62
X6.595Y-5.37
X6.995Y-5.37
X5.47Y-1.62
X5.87Y-1.62
X11.47Y-3.12
X11.87Y-3.12
X7.72Y-5.37
X8.12Y-5.37
X8.47Y-5.37
X8.87Y-5.37
X12.22Y-4.62
X12.62Y-4.62
X3.22Y-3.12
X3.62Y-3.12
X5.47Y-2.37
X5.87Y-2.37
X3.22Y-5.37
X3.62Y-5.37
X5.47Y-3.12
X5.87Y-3.12
X9.97Y-2.37
X10.37Y-2.37
X10.72Y-5.37
X11.12Y-5.37
X5.47Y-3.87
X5.87Y-3.87
X7.72Y-3.87
X8.12Y-3.87
X12.22Y-3.12
X12.62Y-3.12
X5.47Y-4.62
X5.87Y-4.62
X1.72Y-2.37
X2.12Y-2.37
X7.72Y-1.62
X8.12Y-1.62
X9.97Y-3.12
X10.37Y-3.12
X6.22Y-1.62
X6.62Y-1.62
X6.97Y-1.62
X7.37Y-1.62
X4.72Y-3.12
X5.12Y-3.12
X7.72Y-2.37
X8.12Y-2.37
T2
X10.8265Y-3.5944
X11.7635Y-3.5944
X4.8265Y-5.0944
X5.7635Y-5.0944
X11.5765Y-2.0944
X12.5135Y-2.0944
X6.3265Y-5.0944
X7.2635Y-5.0944
T3
X1.92Y-3.87
X6.42Y-3.12
X10.17Y-3.87
X1.92Y-4.62
X3.42Y-1.62
X10.17Y-4.62
X10.8265Y-4.1944
X11.295Y-3.87
X11.7635Y-4.1944
X4.8265Y-5.6944
X5.295Y-5.37
X5.7635Y-5.6944
X10.17Y-5.37
X4.17Y-3.12
X3.42Y-3.87
X8.67Y-2.37
X11.67Y-5.37
X8.67Y-1.62
X10.92Y-1.62
X4.17Y-3.87
X3.42Y-4.62
X8.67Y-3.12
X10.92Y-2.37
X10.17Y-1.62
X4.17Y-4.62
X10.92Y-4.62
X4.17Y-5.37
X9.42Y-2.37
X1.92Y-5.37
X9.42Y-4.62
X11.5765Y-2.6944
X12.045Y-2.37
X12.5135Y-2.6944
X6.42Y-2.37
X4.92Y-1.62
X2.67Y-1.62
X2.67Y-5.37
X4.92Y-2.37
X2.67Y-2.37
X9.42Y-3.87
X7.17Y-3.87
X8.67Y-3.87
X7.17Y-4.62
X1.92Y-1.62
X8.67Y-4.62
X12.42Y-3.87
X9.42Y-5.37
X11.67Y-4.62
X6.3265Y-5.6944
X6.795Y-5.37
X7.2635Y-5.6944
X5.67Y-1.62
X11.67Y-3.12
X7.92Y-5.37
X8.67Y-5.37
X12.42Y-4.62
X3.42Y-3.12
X5.67Y-2.37
X3.42Y-5.37
X5.67Y-3.12
X10.17Y-2.37
X10.92Y-5.37
X5.67Y-3.87
X7.92Y-3.87
X12.42Y-3.12
X5.67Y-4.62
X1.92Y-2.37
X7.92Y-1.62
X10.17Y-3.12
X6.42Y-1.62
X7.17Y-1.62
X4.92Y-3.12
X7.92Y-2.37
X9.42Y-3.12
X9.42Y-1.62
X2.67Y-3.12
X7.17Y-2.37
X4.92Y-3.87
X4.17Y-1.62
X2.67Y-3.87
X7.17Y-3.12
X4.92Y-4.62
X4.17Y-2.37
X2.67Y-4.62
X12.42Y-5.37
X6.42Y-3.87
X1.92Y-3.12
X3.42Y-2.37
X7.92Y-4.62
X10.92Y-3.12
X6.42Y-4.62
X7.92Y-3.12
T0
M30
